<?xml version="1.0" encoding="UTF-8" standalone="no"?>
<!DOCTYPE svg PUBLIC "-//W3C//DTD SVG 1.1//EN" "http://www.w3.org/Graphics/SVG/1.1/DTD/svg11.dtd">
<svg version="1.1" xmlns="http://www.w3.org/2000/svg" xmlns:xlink="http://www.w3.org/1999/xlink" preserveAspectRatio="xMidYMid meet" viewBox="0 0 640 640" width="400" height="500"><defs><path d="M386.55 84.29C394.28 84.29 400.55 90.55 400.55 98.29C400.55 155.49 400.55 313.09 400.55 370.29C400.55 378.02 394.28 384.29 386.55 384.29C335.66 384.29 196.98 384.29 146.09 384.29C138.36 384.29 132.09 378.02 132.09 370.29C132.09 313.09 132.09 155.49 132.09 98.29C132.09 90.55 138.36 84.29 146.09 84.29C196.98 84.29 335.66 84.29 386.55 84.29Z" id="cbX2Qfqwe"></path></defs><g><g><g><g><filter id="shadow8293974" x="103.09" y="55.29" width="334.46" height="366" filterUnits="userSpaceOnUse" primitiveUnits="userSpaceOnUse"><feFlood></feFlood><feComposite in2="SourceAlpha" operator="in"></feComposite><feGaussianBlur stdDeviation="2.24"></feGaussianBlur><feOffset dx="8" dy="8" result="afterOffset"></feOffset><feFlood flood-color="#000000" flood-opacity="0.5"></feFlood><feComposite in2="afterOffset" operator="in"></feComposite><feMorphology operator="dilate" radius="6"></feMorphology><feComposite in2="SourceAlpha" operator="out"></feComposite></filter><path d="M386.55 84.29C394.28 84.29 400.55 90.55 400.55 98.29C400.55 155.49 400.55 313.09 400.55 370.29C400.55 378.02 394.28 384.29 386.55 384.29C335.66 384.29 196.98 384.29 146.09 384.29C138.36 384.29 132.09 378.02 132.09 370.29C132.09 313.09 132.09 155.49 132.09 98.29C132.09 90.55 138.36 84.29 146.09 84.29C196.98 84.29 335.66 84.29 386.55 84.29Z" id="cG7X6qGPO" fill="white" fill-opacity="1" filter="url(#shadow8293974)"></path></g><g><filter id="shadow4594294" x="120.09" y="72.29" width="296.46" height="325" filterUnits="userSpaceOnUse" primitiveUnits="userSpaceOnUse"><feFlood></feFlood><feComposite in2="SourceAlpha" operator="in"></feComposite><feGaussianBlur stdDeviation="1"></feGaussianBlur><feOffset dx="4" dy="1" result="afterOffset"></feOffset><feFlood flood-color="#000000" flood-opacity="0.5"></feFlood><feComposite in2="afterOffset" operator="in"></feComposite><feMorphology operator="dilate" radius="1"></feMorphology><feComposite in2="SourceAlpha" operator="out"></feComposite></filter><path d="M386.55 84.29C394.28 84.29 400.55 90.55 400.55 98.29C400.55 155.49 400.55 313.09 400.55 370.29C400.55 378.02 394.28 384.29 386.55 384.29C335.66 384.29 196.98 384.29 146.09 384.29C138.36 384.29 132.09 378.02 132.09 370.29C132.09 313.09 132.09 155.49 132.09 98.29C132.09 90.55 138.36 84.29 146.09 84.29C196.98 84.29 335.66 84.29 386.55 84.29Z" id="a2v7yOwecL" fill="white" fill-opacity="1" filter="url(#shadow4594294)"></path></g><use xlink:href="#cbX2Qfqwe" opacity="1" fill="#d23f3f" fill-opacity="1"></use></g></g></g></svg>